<svg xmlns="http://www.w3.org/2000/svg" width="1000" height="580"><style>text { font: 10px sans-serif;} .mapTrack { fill: #090; }.bands&gt;* {stroke: #000; fill: #FFF;} .acen {fill: #DDD;} .gpos25 {fill: rgb(25%, 25%, 25%);} .gpos33 {fill: rgb(33%, 33%, 33%);} .gpos50 {fill: rgb(50%, 50%, 50%);} .gpos66 {fill: rgb(66%, 66%, 66%);} .gpos75 {fill: rgb(75%, 75%, 75%);} .gpos100 {fill: #000;} .gneg {fill: #FFF;} .gvar {fill: #CCC;} .stalk {fill: #666; stroke: none}</style><g transform="translate(50,20)"><text transform="translate(0,496) rotate(45)">I</text><g class="chromosome" id="I" transform="translate(0,480) rotate(-90)"><g class="bands"><path d="M0,2L72.13412074810061,2L72.13412074810061,8L0,8Z"><title/></path></g><g class="brush" style="pointer-events: all;"><rect class="background" style="visibility: hidden; cursor: pointer;" x="0" width="72.13412074810061" height="10"/><rect class="extent" style="cursor: move; fill-opacity: 0.8; stroke: blue; fill: none;" x="0" width="0" height="10"/><g class="resize e" style="cursor: move; display: none;" transform="translate(0,0)"><rect x="-3" width="6" height="6" style="visibility: hidden;"/><rect class="handle" height="10" width="2" style="fill: blue;"/></g><g class="resize w" style="cursor: move; display: none;" transform="translate(0,0)"><rect x="-3" width="6" height="6" style="visibility: hidden;"/><rect class="handle" height="10" width="2" style="fill: blue;"/></g></g></g><text transform="translate(52.94117647058823,496) rotate(45)">II</text><g class="chromosome" id="II" transform="translate(52.94117647058823,480) rotate(-90)"><g class="bands"><path d="M0,2L254.79464180221984,2L254.79464180221984,8L0,8Z"><title/></path></g><g class="brush" style="pointer-events: all;"><rect class="background" style="visibility: hidden; cursor: pointer;" x="0" width="254.79464180221984" height="10"/><rect class="extent" style="cursor: move; fill-opacity: 0.8; stroke: blue; fill: none;" x="0" width="0" height="10"/><g class="resize e" style="cursor: move; display: none;" transform="translate(0,0)"><rect x="-3" width="6" height="6" style="visibility: hidden;"/><rect class="handle" height="10" width="2" style="fill: blue;"/></g><g class="resize w" style="cursor: move; display: none;" transform="translate(0,0)"><rect x="-3" width="6" height="6" style="visibility: hidden;"/><rect class="handle" height="10" width="2" style="fill: blue;"/></g></g></g><text transform="translate(105.88235294117646,496) rotate(45)">III</text><g class="chromosome" id="III" transform="translate(105.88235294117646,480) rotate(-90)"><g class="bands"><path d="M0,2L99.2064274351424,2L99.2064274351424,8L0,8Z"><title/></path></g><g class="brush" style="pointer-events: all;"><rect class="background" style="visibility: hidden; cursor: pointer;" x="0" width="99.2064274351424" height="10"/><rect class="extent" style="cursor: move; fill-opacity: 0.8; stroke: blue; fill: none;" x="0" width="0" height="10"/><g class="resize e" style="cursor: move; display: none;" transform="translate(0,0)"><rect x="-3" width="6" height="6" style="visibility: hidden;"/><rect class="handle" height="10" width="2" style="fill: blue;"/></g><g class="resize w" style="cursor: move; display: none;" transform="translate(0,0)"><rect x="-3" width="6" height="6" style="visibility: hidden;"/><rect class="handle" height="10" width="2" style="fill: blue;"/></g></g></g><text transform="translate(158.8235294117647,496) rotate(45)">IV</text><g class="chromosome" id="IV" transform="translate(158.8235294117647,480) rotate(-90)"><g class="bands"><path d="M0,2L480,2L480,8L0,8Z"><title/></path></g><g class="brush" style="pointer-events: all;"><rect class="background" style="visibility: hidden; cursor: pointer;" x="0" width="480" height="10"/><rect class="extent" style="cursor: move; fill-opacity: 0.8; stroke: blue; fill: none;" x="0" width="0" height="10"/><g class="resize e" style="cursor: move; display: none;" transform="translate(0,0)"><rect x="-3" width="6" height="6" style="visibility: hidden;"/><rect class="handle" height="10" width="2" style="fill: blue;"/></g><g class="resize w" style="cursor: move; display: none;" transform="translate(0,0)"><rect x="-3" width="6" height="6" style="visibility: hidden;"/><rect class="handle" height="10" width="2" style="fill: blue;"/></g></g></g><text transform="translate(211.76470588235293,496) rotate(45)">IX</text><g class="chromosome" id="IX" transform="translate(211.76470588235293,480) rotate(-90)"><g class="bands"><path d="M0,2L137.82994425996438,2L137.82994425996438,8L0,8Z"><title/></path></g><g class="brush" style="pointer-events: all;"><rect class="background" style="visibility: hidden; cursor: pointer;" x="0" width="137.82994425996438" height="10"/><rect class="extent" style="cursor: move; fill-opacity: 0.8; stroke: blue; fill: none;" x="0" width="0" height="10"/><g class="resize e" style="cursor: move; display: none;" transform="translate(0,0)"><rect x="-3" width="6" height="6" style="visibility: hidden;"/><rect class="handle" height="10" width="2" style="fill: blue;"/></g><g class="resize w" style="cursor: move; display: none;" transform="translate(0,0)"><rect x="-3" width="6" height="6" style="visibility: hidden;"/><rect class="handle" height="10" width="2" style="fill: blue;"/></g></g></g><text transform="translate(264.70588235294116,496) rotate(45)">Mito</text><g class="chromosome" id="Mito" transform="translate(264.70588235294116,480) rotate(-90)"><g class="bands"><path d="M0,2L26.87710232758221,2L26.87710232758221,8L0,8Z"><title/></path></g><g class="brush" style="pointer-events: all;"><rect class="background" style="visibility: hidden; cursor: pointer;" x="0" width="26.87710232758221" height="10"/><rect class="extent" style="cursor: move; fill-opacity: 0.8; stroke: blue; fill: none;" x="0" width="0" height="10"/><g class="resize e" style="cursor: move; display: none;" transform="translate(0,0)"><rect x="-3" width="6" height="6" style="visibility: hidden;"/><rect class="handle" height="10" width="2" style="fill: blue;"/></g><g class="resize w" style="cursor: move; display: none;" transform="translate(0,0)"><rect x="-3" width="6" height="6" style="visibility: hidden;"/><rect class="handle" height="10" width="2" style="fill: blue;"/></g></g></g><text transform="translate(317.6470588235294,496) rotate(45)">V</text><g class="chromosome" id="V" transform="translate(317.6470588235294,480) rotate(-90)"><g class="bands"><path d="M0,2L180.75171694845662,2L180.75171694845662,8L0,8Z"><title/></path></g><g class="brush" style="pointer-events: all;"><rect class="background" style="visibility: hidden; cursor: pointer;" x="0" width="180.75171694845662" height="10"/><rect class="extent" style="cursor: move; fill-opacity: 0.8; stroke: blue; fill: none;" x="0" width="0" height="10"/><g class="resize e" style="cursor: move; display: none;" transform="translate(0,0)"><rect x="-3" width="6" height="6" style="visibility: hidden;"/><rect class="handle" height="10" width="2" style="fill: blue;"/></g><g class="resize w" style="cursor: move; display: none;" transform="translate(0,0)"><rect x="-3" width="6" height="6" style="visibility: hidden;"/><rect class="handle" height="10" width="2" style="fill: blue;"/></g></g></g><text transform="translate(370.5882352941176,496) rotate(45)">VI</text><g class="chromosome" id="VI" transform="translate(370.5882352941176,480) rotate(-90)"><g class="bands"><path d="M0,2L84.64944615724056,2L84.64944615724056,8L0,8Z"><title/></path></g><g class="brush" style="pointer-events: all;"><rect class="background" style="visibility: hidden; cursor: pointer;" x="0" width="84.64944615724056" height="10"/><rect class="extent" style="cursor: move; fill-opacity: 0.8; stroke: blue; fill: none;" x="0" width="0" height="10"/><g class="resize e" style="cursor: move; display: none;" transform="translate(0,0)"><rect x="-3" width="6" height="6" style="visibility: hidden;"/><rect class="handle" height="10" width="2" style="fill: blue;"/></g><g class="resize w" style="cursor: move; display: none;" transform="translate(0,0)"><rect x="-3" width="6" height="6" style="visibility: hidden;"/><rect class="handle" height="10" width="2" style="fill: blue;"/></g></g></g><text transform="translate(423.52941176470586,496) rotate(45)">VII</text><g class="chromosome" id="VII" transform="translate(423.52941176470586,480) rotate(-90)"><g class="bands"><path d="M0,2L341.8238264989396,2L341.8238264989396,8L0,8Z"><title/></path></g><g class="brush" style="pointer-events: all;"><rect class="background" style="visibility: hidden; cursor: pointer;" x="0" width="341.8238264989396" height="10"/><rect class="extent" style="cursor: move; fill-opacity: 0.8; stroke: blue; fill: none;" x="0" width="0" height="10"/><g class="resize e" style="cursor: move; display: none;" transform="translate(0,0)"><rect x="-3" width="6" height="6" style="visibility: hidden;"/><rect class="handle" height="10" width="2" style="fill: blue;"/></g><g class="resize w" style="cursor: move; display: none;" transform="translate(0,0)"><rect x="-3" width="6" height="6" style="visibility: hidden;"/><rect class="handle" height="10" width="2" style="fill: blue;"/></g></g></g><text transform="translate(476.47058823529414,496) rotate(45)">VIII</text><g class="chromosome" id="VIII" transform="translate(476.47058823529414,480) rotate(-90)"><g class="bands"><path d="M0,2L176.29272298462138,2L176.29272298462138,8L0,8Z"><title/></path></g><g class="brush" style="pointer-events: all;"><rect class="background" style="visibility: hidden; cursor: pointer;" x="0" width="176.29272298462138" height="10"/><rect class="extent" style="cursor: move; fill-opacity: 0.8; stroke: blue; fill: none;" x="0" width="0" height="10"/><g class="resize e" style="cursor: move; display: none;" transform="translate(0,0)"><rect x="-3" width="6" height="6" style="visibility: hidden;"/><rect class="handle" height="10" width="2" style="fill: blue;"/></g><g class="resize w" style="cursor: move; display: none;" transform="translate(0,0)"><rect x="-3" width="6" height="6" style="visibility: hidden;"/><rect class="handle" height="10" width="2" style="fill: blue;"/></g></g></g><text transform="translate(529.4117647058823,496) rotate(45)">X</text><g class="chromosome" id="X" transform="translate(529.4117647058823,480) rotate(-90)"><g class="bands"><path d="M0,2L233.66588486572192,2L233.66588486572192,8L0,8Z"><title/></path></g><g class="brush" style="pointer-events: all;"><rect class="background" style="visibility: hidden; cursor: pointer;" x="0" width="233.66588486572192" height="10"/><rect class="extent" style="cursor: move; fill-opacity: 0.8; stroke: blue; fill: none;" x="0" width="0" height="10"/><g class="resize e" style="cursor: move; display: none;" transform="translate(0,0)"><rect x="-3" width="6" height="6" style="visibility: hidden;"/><rect class="handle" height="10" width="2" style="fill: blue;"/></g><g class="resize w" style="cursor: move; display: none;" transform="translate(0,0)"><rect x="-3" width="6" height="6" style="visibility: hidden;"/><rect class="handle" height="10" width="2" style="fill: blue;"/></g></g></g><text transform="translate(582.3529411764706,496) rotate(45)">XI</text><g class="chromosome" id="XI" transform="translate(582.3529411764706,480) rotate(-90)"><g class="bands"><path d="M0,2L208.9332105255256,2L208.9332105255256,8L0,8Z"><title/></path></g><g class="brush" style="pointer-events: all;"><rect class="background" style="visibility: hidden; cursor: pointer;" x="0" width="208.9332105255256" height="10"/><rect class="extent" style="cursor: move; fill-opacity: 0.8; stroke: blue; fill: none;" x="0" width="0" height="10"/><g class="resize e" style="cursor: move; display: none;" transform="translate(0,0)"><rect x="-3" width="6" height="6" style="visibility: hidden;"/><rect class="handle" height="10" width="2" style="fill: blue;"/></g><g class="resize w" style="cursor: move; display: none;" transform="translate(0,0)"><rect x="-3" width="6" height="6" style="visibility: hidden;"/><rect class="handle" height="10" width="2" style="fill: blue;"/></g></g></g><text transform="translate(635.2941176470588,496) rotate(45)">XII</text><g class="chromosome" id="XII" transform="translate(635.2941176470588,480) rotate(-90)"><g class="bands"><path d="M0,2L337.8248004318727,2L337.8248004318727,8L0,8Z"><title/></path></g><g class="brush" style="pointer-events: all;"><rect class="background" style="visibility: hidden; cursor: pointer;" x="0" width="337.8248004318727" height="10"/><rect class="extent" style="cursor: move; fill-opacity: 0.8; stroke: blue; fill: none;" x="0" width="0" height="10"/><g class="resize e" style="cursor: move; display: none;" transform="translate(0,0)"><rect x="-3" width="6" height="6" style="visibility: hidden;"/><rect class="handle" height="10" width="2" style="fill: blue;"/></g><g class="resize w" style="cursor: move; display: none;" transform="translate(0,0)"><rect x="-3" width="6" height="6" style="visibility: hidden;"/><rect class="handle" height="10" width="2" style="fill: blue;"/></g></g></g><text transform="translate(688.2352941176471,496) rotate(45)">XIII</text><g class="chromosome" id="XIII" transform="translate(688.2352941176471,480) rotate(-90)"><g class="bands"><path d="M0,2L289.6516231453987,2L289.6516231453987,8L0,8Z"><title/></path></g><g class="brush" style="pointer-events: all;"><rect class="background" style="visibility: hidden; cursor: pointer;" x="0" width="289.6516231453987" height="10"/><rect class="extent" style="cursor: move; fill-opacity: 0.8; stroke: blue; fill: none;" x="0" width="0" height="10"/><g class="resize e" style="cursor: move; display: none;" transform="translate(0,0)"><rect x="-3" width="6" height="6" style="visibility: hidden;"/><rect class="handle" height="10" width="2" style="fill: blue;"/></g><g class="resize w" style="cursor: move; display: none;" transform="translate(0,0)"><rect x="-3" width="6" height="6" style="visibility: hidden;"/><rect class="handle" height="10" width="2" style="fill: blue;"/></g></g></g><text transform="translate(741.1764705882352,496) rotate(45)">XIV</text><g class="chromosome" id="XIV" transform="translate(741.1764705882352,480) rotate(-90)"><g class="bands"><path d="M0,2L245.7547686484983,2L245.7547686484983,8L0,8Z"><title/></path></g><g class="brush" style="pointer-events: all;"><rect class="background" style="visibility: hidden; cursor: pointer;" x="0" width="245.7547686484983" height="10"/><rect class="extent" style="cursor: move; fill-opacity: 0.8; stroke: blue; fill: none;" x="0" width="0" height="10"/><g class="resize e" style="cursor: move; display: none;" transform="translate(0,0)"><rect x="-3" width="6" height="6" style="visibility: hidden;"/><rect class="handle" height="10" width="2" style="fill: blue;"/></g><g class="resize w" style="cursor: move; display: none;" transform="translate(0,0)"><rect x="-3" width="6" height="6" style="visibility: hidden;"/><rect class="handle" height="10" width="2" style="fill: blue;"/></g></g></g><text transform="translate(794.1176470588235,496) rotate(45)">XV</text><g class="chromosome" id="XV" transform="translate(794.1176470588235,480) rotate(-90)"><g class="bands"><path d="M0,2L341.9338051990524,2L341.9338051990524,8L0,8Z"><title/></path></g><g class="brush" style="pointer-events: all;"><rect class="background" style="visibility: hidden; cursor: pointer;" x="0" width="341.9338051990524" height="10"/><rect class="extent" style="cursor: move; fill-opacity: 0.8; stroke: blue; fill: none;" x="0" width="0" height="10"/><g class="resize e" style="cursor: move; display: none;" transform="translate(0,0)"><rect x="-3" width="6" height="6" style="visibility: hidden;"/><rect class="handle" height="10" width="2" style="fill: blue;"/></g><g class="resize w" style="cursor: move; display: none;" transform="translate(0,0)"><rect x="-3" width="6" height="6" style="visibility: hidden;"/><rect class="handle" height="10" width="2" style="fill: blue;"/></g></g></g><text transform="translate(847.0588235294117,496) rotate(45)">XVI</text><g class="chromosome" id="XVI" transform="translate(847.0588235294117,480) rotate(-90)"><g class="bands"><path d="M0,2L297.0571689492948,2L297.0571689492948,8L0,8Z"><title/></path></g><g class="brush" style="pointer-events: all;"><rect class="background" style="visibility: hidden; cursor: pointer;" x="0" width="297.0571689492948" height="10"/><rect class="extent" style="cursor: move; fill-opacity: 0.8; stroke: blue; fill: none;" x="0" width="0" height="10"/><g class="resize e" style="cursor: move; display: none;" transform="translate(0,0)"><rect x="-3" width="6" height="6" style="visibility: hidden;"/><rect class="handle" height="10" width="2" style="fill: blue;"/></g><g class="resize w" style="cursor: move; display: none;" transform="translate(0,0)"><rect x="-3" width="6" height="6" style="visibility: hidden;"/><rect class="handle" height="10" width="2" style="fill: blue;"/></g></g></g></g></svg>